<svg width="30" height="30" viewBox="0 0 30 30" fill="none" xmlns="http://www.w3.org/2000/svg">
<path d="M10.8337 27.4998C13.1337 27.4998 15.0003 25.6332 15.0003 23.3332V19.1665H10.8337C8.53366 19.1665 6.66699 21.0332 6.66699 23.3332C6.66699 25.6332 8.53366 27.4998 10.8337 27.4998Z" fill="#0ACF83"/>
<path d="M6.66699 15.0002C6.66699 12.7002 8.53366 10.8335 10.8337 10.8335H15.0003V19.1668H10.8337C8.53366 19.1668 6.66699 17.3002 6.66699 15.0002Z" fill="#A259FF"/>
<path d="M6.66699 6.66667C6.66699 4.36667 8.53366 2.5 10.8337 2.5H15.0003V10.8333H10.8337C8.53366 10.8333 6.66699 8.96667 6.66699 6.66667Z" fill="#F24E1E"/>
<path d="M15 2.5H19.1667C21.4667 2.5 23.3333 4.36667 23.3333 6.66667C23.3333 8.96667 21.4667 10.8333 19.1667 10.8333H15V2.5Z" fill="#FF7262"/>
<path d="M23.3333 15.0002C23.3333 17.3002 21.4667 19.1668 19.1667 19.1668C16.8667 19.1668 15 17.3002 15 15.0002C15 12.7002 16.8667 10.8335 19.1667 10.8335C21.4667 10.8335 23.3333 12.7002 23.3333 15.0002Z" fill="#1ABCFE"/>
</svg>
