<svg width="30" height="30" viewBox="0 0 30 30" fill="none" xmlns="http://www.w3.org/2000/svg">
<g clip-path="url(#clip0_55512_1114)">
<path fill-rule="evenodd" clip-rule="evenodd" d="M14.9991 0.3125C6.71625 0.3125 0 7.05453 0 15.373C0 22.0255 4.2975 27.6699 10.2591 29.6616C11.0091 29.7999 11.2828 29.3349 11.2828 28.936C11.2828 28.5784 11.2697 27.6315 11.2622 26.375C7.08937 27.2851 6.20906 24.3561 6.20906 24.3561C5.5275 22.6168 4.54406 22.1537 4.54406 22.1537C3.18188 21.219 4.64719 21.238 4.64719 21.238C6.15188 21.3444 6.94406 22.79 6.94406 22.79C8.28281 25.0913 10.455 24.4269 11.31 24.0409C11.4459 23.0677 11.8341 22.404 12.2625 22.0276C8.93156 21.6474 5.43 20.356 5.43 14.5855C5.43 12.9411 6.01406 11.5972 6.97406 10.5439C6.81938 10.1628 6.30469 8.63234 7.12031 6.55883C7.12031 6.55883 8.38031 6.15406 11.2453 8.10242C12.4425 7.7682 13.725 7.6018 15.0009 7.595C16.275 7.60156 17.5584 7.7682 18.7566 8.10242C21.6197 6.15406 22.8769 6.55883 22.8769 6.55883C23.6953 8.63234 23.1806 10.1628 23.0259 10.5439C23.9878 11.5972 24.5681 12.9411 24.5681 14.5855C24.5681 20.3701 21.0609 21.6437 17.7197 22.0163C18.2578 22.4813 18.7378 23.3998 18.7378 24.8052C18.7378 26.8184 18.7191 28.442 18.7191 28.9362C18.7191 29.3391 18.9891 29.8079 19.7503 29.66C25.7062 27.6643 30 22.0236 30 15.373C30 7.05453 23.2837 0.3125 14.9991 0.3125Z" fill="black"/>
</g>
<defs>
<clipPath id="clip0_55512_1114">
<rect width="30" height="30" fill="white"/>
</clipPath>
</defs>
</svg>
