<svg width="30" height="30" viewBox="0 0 30 30" fill="none" xmlns="http://www.w3.org/2000/svg">
<g clip-path="url(#clip0_55512_1118)">
<path d="M7.3832 29.9964L27.8119 28.7518C28.2279 28.7256 28.6183 28.5421 28.9039 28.2385C29.1895 27.9348 29.3488 27.5339 29.3494 27.1171V5.82938C29.3494 5.72878 29.3253 5.62964 29.279 5.54032C29.2327 5.45099 29.1656 5.3741 29.0834 5.3161L22.4207 0.618054C21.7845 0.169732 21.0133 -0.0456795 20.2369 0.00809266L2.29492 1.25438C1.84932 1.2861 1.43229 1.48552 1.12786 1.81246C0.823424 2.1394 0.654207 2.56956 0.654297 3.0163V22.2655C0.654378 22.4644 0.719392 22.6578 0.839453 22.8163L5.69805 29.2206C5.89369 29.4783 6.14976 29.6838 6.44365 29.8191C6.73754 29.9544 7.06022 30.0153 7.3832 29.9964Z" fill="black"/>
<path d="M6.53613 8.94875V26.5269C6.53625 26.6815 6.5678 26.8345 6.62886 26.9766C6.68992 27.1187 6.77922 27.2469 6.89133 27.3534C7.00345 27.46 7.13604 27.5426 7.28106 27.5963C7.42608 27.65 7.58051 27.6737 7.73496 27.6659L26.373 26.7343C26.661 26.7199 26.9325 26.5953 27.1312 26.3863C27.3299 26.1774 27.4407 25.9 27.4406 25.6116V7.69836C27.4406 7.5797 27.4165 7.46229 27.3696 7.35329C27.3227 7.24429 27.2541 7.14598 27.1679 7.06439C27.0818 6.98279 26.9799 6.91961 26.8685 6.87871C26.7572 6.83781 26.6386 6.82004 26.5201 6.82649L7.57148 7.85598C7.29188 7.87112 7.02871 7.99285 6.83612 8.19611C6.64353 8.39938 6.53617 8.66874 6.53613 8.94875Z" fill="white"/>
<path d="M25.1157 4.89346L7.12746 5.90947C6.67001 5.93541 6.21897 5.79236 5.86008 5.50752L3.26145 3.44971C3.21687 3.41436 3.18399 3.3664 3.16708 3.31208C3.15018 3.25776 3.15003 3.19961 3.16667 3.14521C3.18331 3.09081 3.21595 3.04268 3.26035 3.00711C3.30474 2.97154 3.35883 2.95018 3.41555 2.9458L20.0187 1.65674C20.7328 1.60203 21.443 1.80399 22.0214 2.22627L25.2159 4.55244C25.2474 4.57532 25.2711 4.60739 25.2836 4.64424C25.2962 4.68109 25.297 4.72092 25.2861 4.75828C25.2751 4.79563 25.2528 4.82867 25.2223 4.85287C25.1918 4.87708 25.1546 4.89125 25.1157 4.89346Z" fill="white"/>
<path d="M24.437 9.85421L24.4171 10.3417C24.4113 10.4709 24.3609 10.5941 24.2745 10.6903C24.188 10.7865 24.0709 10.8496 23.943 10.8691L23.0372 11.0056V23.6595C23.0366 23.7229 23.017 23.7847 22.981 23.837C22.945 23.8892 22.8941 23.9294 22.835 23.9525L21.8272 24.3491C21.3682 24.5294 20.861 24.5457 20.3913 24.3954C19.9217 24.2451 19.5182 23.9374 19.2491 23.5241L13.344 14.4421V22.9968L13.3786 22.9886L15.1188 23.4491C15.1347 23.4539 15.1495 23.462 15.162 23.4728C15.1746 23.4837 15.1847 23.4971 15.1917 23.5122C15.1986 23.5272 15.2023 23.5436 15.2025 23.5602C15.2027 23.5768 15.1993 23.5933 15.1927 23.6085C15.0773 23.8525 14.8987 24.0612 14.6754 24.2129C14.4521 24.3646 14.1923 24.4537 13.9229 24.471L13.344 24.5079L11.1315 24.6497L9.67781 24.7429C9.65723 24.7441 9.63665 24.7405 9.61779 24.7321C9.59893 24.7238 9.58235 24.711 9.56944 24.695C9.55652 24.6789 9.54765 24.66 9.54357 24.6397C9.53949 24.6195 9.54031 24.5986 9.54597 24.5788L9.67195 24.1429C9.69553 24.0605 9.74048 23.9859 9.80222 23.9265C9.86396 23.8671 9.9403 23.8251 10.0235 23.8048L11.1309 23.5353V11.9788L9.57703 11.8821L9.75281 11.2458C9.80196 11.067 9.9061 10.9083 10.0505 10.792C10.1949 10.6757 10.3722 10.6077 10.5573 10.5978L11.1315 10.5673L13.344 10.4501L14.7661 10.3763C14.8394 10.3724 14.9124 10.3877 14.978 10.4207C15.0435 10.4537 15.0993 10.5032 15.1399 10.5644L16.2895 12.2999L20.9471 19.3312V11.2593L19.5257 11.1837C19.4999 11.1825 19.4756 11.1718 19.4572 11.1538C19.4388 11.1357 19.4277 11.1115 19.4261 11.0859C19.4151 10.9389 19.4378 10.7915 19.4923 10.6546C19.668 10.2251 20.1643 9.94679 20.7532 9.93917L20.9471 9.92804L23.0384 9.81554L24.3274 9.74523C24.3419 9.74456 24.3564 9.74693 24.37 9.75216C24.3835 9.7574 24.3959 9.76539 24.4062 9.77564C24.4165 9.78588 24.4245 9.79816 24.4298 9.81168C24.4351 9.82521 24.4376 9.83969 24.437 9.85421Z" fill="black"/>
</g>
<defs>
<clipPath id="clip0_55512_1118">
<rect width="30" height="30" fill="white"/>
</clipPath>
</defs>
</svg>
