<svg width="262" height="64" viewBox="0 0 262 64" fill="none" xmlns="http://www.w3.org/2000/svg">
<path d="M20.2325 52.797C20.2325 54.374 20.0425 55.8085 19.6625 57.1005C19.2825 58.3735 18.6935 59.4755 17.8955 60.4065C17.0975 61.3375 16.0715 62.05 14.8175 62.544C13.5825 63.038 12.091 63.285 10.343 63.285C8.633 63.285 7.151 63.038 5.897 62.544C4.662 62.05 3.636 61.3375 2.819 60.4065C2.021 59.4755 1.4225 58.3735 1.0235 57.1005C0.6435 55.8085 0.4535 54.3645 0.4535 52.7685C0.4535 50.6595 0.805 48.826 1.508 47.268C2.211 45.691 3.294 44.475 4.757 43.62C6.22 42.765 8.0915 42.3375 10.3715 42.3375C12.6895 42.3375 14.5705 42.7745 16.0145 43.6485C17.4775 44.5035 18.5415 45.7195 19.2065 47.2965C19.8905 48.8545 20.2325 50.688 20.2325 52.797ZM6.239 52.797C6.239 54.013 6.372 55.0675 6.638 55.9605C6.923 56.8345 7.3695 57.509 7.9775 57.984C8.5855 58.459 9.374 58.6965 10.343 58.6965C11.35 58.6965 12.148 58.459 12.737 57.984C13.345 57.509 13.782 56.8345 14.048 55.9605C14.314 55.0675 14.447 54.013 14.447 52.797C14.447 50.954 14.143 49.5005 13.535 48.4365C12.927 47.3725 11.8725 46.8405 10.3715 46.8405C9.3835 46.8405 8.5855 47.0875 7.9775 47.5815C7.3695 48.0565 6.923 48.7405 6.638 49.6335C6.372 50.5075 6.239 51.562 6.239 52.797ZM43.2854 63H36.0749L28.6364 48.6645H28.5224C28.5604 48.9875 28.5889 49.3675 28.6079 49.8045C28.6459 50.2415 28.6744 50.6975 28.6934 51.1725C28.7124 51.6475 28.7314 52.113 28.7504 52.569C28.7694 53.025 28.7789 53.443 28.7789 53.823V63H23.9054V42.651H31.0874L38.4974 56.787H38.5829C38.5639 56.464 38.5354 56.0935 38.4974 55.6755C38.4784 55.2385 38.4594 54.8015 38.4404 54.3645C38.4214 53.9085 38.4024 53.462 38.3834 53.025C38.3834 52.588 38.3834 52.1985 38.3834 51.8565V42.651H43.2854V63ZM59.758 63H47.674V42.651H59.758V47.0685H53.1745V50.2605H59.2735V54.678H53.1745V58.5255H59.758V63ZM77.8221 63H61.9761V59.6085L70.7826 47.097H62.1756V42.651H77.5941V46.0425L68.7876 58.554H77.8221V63ZM99.4981 52.797C99.4981 54.374 99.3081 55.8085 98.9281 57.1005C98.5481 58.3735 97.9591 59.4755 97.1611 60.4065C96.3631 61.3375 95.3371 62.05 94.0831 62.544C92.8481 63.038 91.3566 63.285 89.6086 63.285C87.8986 63.285 86.4166 63.038 85.1626 62.544C83.9276 62.05 82.9016 61.3375 82.0846 60.4065C81.2866 59.4755 80.6881 58.3735 80.2891 57.1005C79.9091 55.8085 79.7191 54.3645 79.7191 52.7685C79.7191 50.6595 80.0706 48.826 80.7736 47.268C81.4766 45.691 82.5596 44.475 84.0226 43.62C85.4856 42.765 87.3571 42.3375 89.6371 42.3375C91.9551 42.3375 93.8361 42.7745 95.2801 43.6485C96.7431 44.5035 97.8071 45.7195 98.4721 47.2965C99.1561 48.8545 99.4981 50.688 99.4981 52.797ZM85.5046 52.797C85.5046 54.013 85.6376 55.0675 85.9036 55.9605C86.1886 56.8345 86.6351 57.509 87.2431 57.984C87.8511 58.459 88.6396 58.6965 89.6086 58.6965C90.6156 58.6965 91.4136 58.459 92.0026 57.984C92.6106 57.509 93.0476 56.8345 93.3136 55.9605C93.5796 55.0675 93.7126 54.013 93.7126 52.797C93.7126 50.954 93.4086 49.5005 92.8006 48.4365C92.1926 47.3725 91.1381 46.8405 89.6371 46.8405C88.6491 46.8405 87.8511 47.0875 87.2431 47.5815C86.6351 48.0565 86.1886 48.7405 85.9036 49.6335C85.6376 50.5075 85.5046 51.562 85.5046 52.797ZM119.552 63H114.051V47.154H109.092V42.651H124.511V47.154H119.552V63ZM145.894 52.797C145.894 54.374 145.704 55.8085 145.324 57.1005C144.944 58.3735 144.355 59.4755 143.557 60.4065C142.759 61.3375 141.733 62.05 140.479 62.544C139.244 63.038 137.753 63.285 136.005 63.285C134.295 63.285 132.813 63.038 131.559 62.544C130.324 62.05 129.298 61.3375 128.481 60.4065C127.683 59.4755 127.084 58.3735 126.685 57.1005C126.305 55.8085 126.115 54.3645 126.115 52.7685C126.115 50.6595 126.467 48.826 127.17 47.268C127.873 45.691 128.956 44.475 130.419 43.62C131.882 42.765 133.753 42.3375 136.033 42.3375C138.351 42.3375 140.232 42.7745 141.676 43.6485C143.139 44.5035 144.203 45.7195 144.868 47.2965C145.552 48.8545 145.894 50.688 145.894 52.797ZM131.901 52.797C131.901 54.013 132.034 55.0675 132.3 55.9605C132.585 56.8345 133.031 57.509 133.639 57.984C134.247 58.459 135.036 58.6965 136.005 58.6965C137.012 58.6965 137.81 58.459 138.399 57.984C139.007 57.509 139.444 56.8345 139.71 55.9605C139.976 55.0675 140.109 54.013 140.109 52.797C140.109 50.954 139.805 49.5005 139.197 48.4365C138.589 47.3725 137.534 46.8405 136.033 46.8405C135.045 46.8405 134.247 47.0875 133.639 47.5815C133.031 48.0565 132.585 48.7405 132.3 49.6335C132.034 50.5075 131.901 51.562 131.901 52.797ZM168.947 63H161.737L154.298 48.6645H154.184C154.222 48.9875 154.251 49.3675 154.27 49.8045C154.308 50.2415 154.336 50.6975 154.355 51.1725C154.374 51.6475 154.393 52.113 154.412 52.569C154.431 53.025 154.441 53.443 154.441 53.823V63H149.567V42.651H156.749L164.159 56.787H164.245C164.226 56.464 164.197 56.0935 164.159 55.6755C164.14 55.2385 164.121 54.8015 164.102 54.3645C164.083 53.9085 164.064 53.462 164.045 53.025C164.045 52.588 164.045 52.1985 164.045 51.8565V42.651H168.947V63ZM181.515 51.087H190.293V62.0595C189.248 62.4205 188.042 62.715 186.674 62.943C185.325 63.171 183.909 63.285 182.427 63.285C180.47 63.285 178.751 62.905 177.269 62.145C175.806 61.385 174.656 60.226 173.82 58.668C173.003 57.11 172.595 55.1435 172.595 52.7685C172.595 50.6405 173.003 48.7975 173.82 47.2395C174.637 45.6815 175.834 44.4845 177.411 43.6485C179.007 42.7935 180.964 42.366 183.282 42.366C184.555 42.366 185.762 42.4895 186.902 42.7365C188.042 42.9645 189.03 43.2685 189.866 43.6485L188.127 47.952C187.405 47.591 186.645 47.325 185.847 47.154C185.049 46.964 184.204 46.869 183.311 46.869C182.095 46.869 181.116 47.1445 180.375 47.6955C179.634 48.2465 179.093 48.978 178.751 49.89C178.428 50.802 178.266 51.809 178.266 52.911C178.266 54.165 178.447 55.229 178.808 56.103C179.169 56.977 179.691 57.642 180.375 58.098C181.059 58.535 181.895 58.7535 182.883 58.7535C183.111 58.7535 183.368 58.744 183.653 58.725C183.938 58.706 184.213 58.6775 184.479 58.6395C184.764 58.6015 184.983 58.5635 185.135 58.5255V55.3335H181.515V51.087ZM211.703 52.398C211.703 54.754 211.257 56.7205 210.364 58.2975C209.49 59.8745 208.255 61.0525 206.659 61.8315C205.063 62.6105 203.182 63 201.016 63H194.432V42.651H201.472C203.657 42.651 205.509 43.031 207.029 43.791C208.549 44.532 209.708 45.6245 210.506 47.0685C211.304 48.5125 211.703 50.289 211.703 52.398ZM206.003 52.5975C206.003 51.3625 205.832 50.3365 205.49 49.5195C205.167 48.7025 204.673 48.0945 204.008 47.6955C203.362 47.2965 202.536 47.097 201.529 47.097H199.933V58.497H201.158C202.83 58.497 204.056 58.0125 204.835 57.0435C205.614 56.0745 206.003 54.5925 206.003 52.5975ZM227.288 63L226.291 59.181H219.679L218.653 63H212.611L219.251 42.5655H226.576L233.302 63H227.288ZM224.267 51.3435C224.172 50.9825 224.039 50.4695 223.868 49.8045C223.697 49.1205 223.526 48.4175 223.355 47.6955C223.184 46.9735 223.051 46.3845 222.956 45.9285C222.88 46.3845 222.757 46.9545 222.586 47.6385C222.434 48.3225 222.272 48.997 222.101 49.662C221.949 50.327 221.816 50.8875 221.702 51.3435L220.819 54.678H225.151L224.267 51.3435ZM252.87 63H246.657L242.638 55.2195L241.014 56.1885V63H235.485V42.651H241.014V51.486C241.242 51.049 241.508 50.612 241.812 50.175C242.116 49.719 242.41 49.2915 242.695 48.8925L246.97 42.651H252.984L246.571 51.771L252.87 63Z" fill="#572A01"/>
<mask id="mask0_54915_9011" style="mask-type:luminance" maskUnits="userSpaceOnUse" x="197" y="0" width="65" height="40">
<path d="M262 0H197V39.8916H262V0Z" fill="white"/>
</mask>
<g mask="url(#mask0_54915_9011)">
<path fill-rule="evenodd" clip-rule="evenodd" d="M244.128 18.9518C244.867 20.0689 245.309 21.3314 245.395 22.671L251.264 28.6663C251.636 29.045 251.709 29.565 251.451 30.0019C251.194 30.4401 250.652 30.7177 250.059 30.7177H245.425V39.5547C245.425 52.8838 233.313 63.9163 217.618 65.7633V78.6907H228.432V81.2157H216.074H209.895H197.536V78.6907H202.171V64.5197C190.305 61.0758 181.613 52.1579 180.664 41.4889C180.648 41.3599 180.643 41.2289 180.637 41.0977C180.634 41.0039 180.63 40.9102 180.622 40.8173H172.82H166.641H160.461C159.609 40.8173 158.917 40.2516 158.917 39.5547C158.917 31.2012 167.232 24.4054 177.454 24.4054C187.143 24.4054 195.106 30.5144 195.911 38.266C195.913 38.2749 195.911 38.2837 195.912 38.2925H223.798V23.1432C223.798 21.6269 224.267 20.2002 225.094 18.953L220.787 8.39391C220.581 7.89279 220.781 7.33977 221.286 7.00896C221.789 6.68067 222.494 6.64036 223.047 6.91171L229.577 10.1132L233.375 5.97371C233.958 5.33754 235.264 5.33754 235.847 5.97371L239.645 10.1119L246.175 6.91045C246.728 6.63658 247.433 6.67815 247.936 7.0077C248.44 7.33977 248.639 7.89128 248.435 8.39265L244.128 18.9518ZM231.213 12.5384C230.737 13.0562 229.859 13.195 229.181 12.863L225.04 10.833L227.386 16.5872C229.303 15.1743 231.832 14.3059 234.611 14.3059C237.39 14.3059 239.919 15.1743 241.836 16.5857L244.182 10.8318L240.039 12.863C239.361 13.195 238.485 13.0562 238.01 12.5384L234.611 8.83583L231.213 12.5384ZM194.447 40.8173H183.692C184.483 49.2797 193.161 55.9666 203.715 55.9666C214.269 55.9666 222.948 49.2797 223.739 40.8173H194.447ZM178.991 26.9947C178.486 26.9531 177.973 26.9304 177.454 26.9304C169.458 26.9304 162.86 31.922 162.083 38.2925H165.175C165.9 32.3387 171.707 27.5905 178.991 26.9947ZM182.085 29.5436C181.579 29.492 181.067 29.4552 180.544 29.4552C174.253 29.4552 169.044 33.317 168.281 38.2925H171.381C172.083 33.7338 176.507 30.1168 182.085 29.5436ZM192.774 38.2925C192.035 34.7146 188.218 31.9802 183.633 31.9802C179.048 31.9802 175.231 34.7146 174.493 38.2925H182.088H192.774ZM209.895 78.6907H214.529V66.0019C214.347 66.009 214.166 66.019 213.986 66.0294C213.654 66.0478 213.322 66.0664 212.984 66.0664C210.318 66.0664 207.741 65.7734 205.26 65.2748V78.6907H209.895ZM212.984 63.5414C229.169 63.5414 242.335 52.7815 242.335 39.5547V23.1432C242.335 19.6625 238.87 16.8309 234.611 16.8309C230.352 16.8309 226.887 19.6625 226.887 23.1432V39.5547C226.887 49.9964 216.492 58.4916 203.715 58.4916C198.962 58.4916 194.539 57.3125 190.858 55.2977C196.243 60.3462 204.165 63.5414 212.984 63.5414ZM245.425 26.7422V28.1927H246.844L245.425 26.7422ZM236.156 23.1706H239.245V25.6956H236.156V23.1706Z" fill="#FF8B38"/>
</g>
</svg>
