<svg width="55" height="35" viewBox="0 0 55 35" fill="none" xmlns="http://www.w3.org/2000/svg">
<path fill-rule="evenodd" clip-rule="evenodd" d="M47.1284 14.003C47.867 15.1231 48.3087 16.3891 48.3951 17.7323L54.2639 23.7439C54.6362 24.1236 54.7086 24.6451 54.4508 25.0831C54.1942 25.5225 53.6522 25.8009 53.0588 25.8009H48.4246V34.6619C48.4246 48.0271 36.3135 59.0896 20.6185 60.9417V73.9042H31.4321V76.4361H19.0738H12.8946H0.536253V73.9042H5.17069V59.6947C-6.695 56.2414 -15.3874 47.2993 -16.3359 36.6014C-16.352 36.472 -16.3574 36.3406 -16.3626 36.209C-16.3662 36.115 -16.3698 36.0211 -16.3776 35.9278H-24.1802H-30.3594H-36.5385C-37.3913 35.9278 -38.0833 35.3607 -38.0833 34.6619C-38.0833 26.2857 -29.7678 19.4714 -19.546 19.4714C-9.85694 19.4714 -1.89358 25.597 -1.08873 33.3697C-1.08743 33.3785 -1.08874 33.3874 -1.08745 33.3962H26.7977V18.2057C26.7977 16.6854 27.2673 15.2548 28.0936 14.0042L23.7869 3.41643C23.5814 2.91395 23.7807 2.35942 24.2858 2.02772C24.7893 1.69854 25.4937 1.65812 26.0466 1.9302L32.5766 5.14039L36.3751 0.989652C36.9576 0.351757 38.2644 0.351757 38.8469 0.989652L42.6454 5.13913L49.1754 1.92894C49.7283 1.65433 50.4328 1.69601 50.9363 2.02645C51.44 2.35942 51.6394 2.91243 51.4354 3.41517L47.1284 14.003ZM34.2127 7.57222C33.7369 8.09138 32.8593 8.23058 32.181 7.89761L28.0398 5.86216L30.3862 11.632C32.3032 10.2152 34.832 9.34443 37.611 9.34443C40.3901 9.34443 42.9191 10.2153 44.8361 11.6305L47.1825 5.8609L43.0394 7.89761C42.3612 8.23058 41.4854 8.09138 41.0096 7.57222L37.611 3.85955L34.2127 7.57222ZM-2.55322 35.9278H-13.3081C-12.5172 44.4132 -3.83855 51.1183 6.71541 51.1183C17.2694 51.1183 25.948 44.4132 26.7389 35.9278H-2.55322ZM-18.0088 22.0677C-18.5141 22.026 -19.0269 22.0033 -19.546 22.0033C-27.5417 22.0033 -34.1395 27.0084 -34.9166 33.3962H-31.8254C-31.0995 27.4263 -25.2926 22.6652 -18.0088 22.0677ZM-14.9147 24.6236C-15.4213 24.5718 -15.9326 24.5349 -16.4563 24.5349C-22.7468 24.5349 -27.9557 28.4073 -28.7188 33.3962H-25.6185C-24.9172 28.8251 -20.493 25.1983 -14.9147 24.6236ZM-4.22635 33.3962C-4.96467 29.8086 -8.78184 27.0668 -13.3668 27.0668C-17.9518 27.0668 -21.769 29.8086 -22.5073 33.3962H-14.9115H-4.22635ZM12.8946 73.9042H17.5288V61.1809C17.347 61.188 17.1663 61.1981 16.9859 61.2084C16.654 61.2269 16.3224 61.2456 15.984 61.2456C13.3178 61.2456 10.7412 60.9518 8.26014 60.4518V73.9042H12.8946ZM15.984 58.7137C32.1689 58.7137 45.3352 47.9246 45.3352 34.6619V18.2057C45.3352 14.7156 41.8701 11.8763 37.611 11.8763C33.3522 11.8763 29.8871 14.7156 29.8871 18.2057V34.6619C29.8871 45.132 19.4924 53.6502 6.71541 53.6502C1.96214 53.6502 -2.46054 52.4679 -6.14179 50.4476C-0.756599 55.5098 7.16482 58.7137 15.984 58.7137ZM48.4246 21.8146V23.269H49.8443L48.4246 21.8146ZM39.1557 18.2333H42.2455V20.7651H39.1557V18.2333Z" fill="#FF8B38"/>
</svg>
