<svg width="22" height="22" viewBox="0 0 22 22" fill="none" xmlns="http://www.w3.org/2000/svg">
<path d="M11 21C11 21 1 14.6364 1 6.9091C1 5.54306 1.41649 4.21922 2.17862 3.1628C2.94075 2.10639 4.00143 1.38266 5.1802 1.11476C6.35897 0.846858 7.58301 1.05133 8.64406 1.69338C9.70512 2.33544 10.5376 3.37541 11 4.63637C11.4624 3.37541 12.2949 2.33544 13.3559 1.69338C14.417 1.05133 15.641 0.846858 16.8198 1.11476C17.9986 1.38266 19.0593 2.10639 19.8214 3.1628C20.5835 4.21922 21 5.54306 21 6.9091C21 14.6364 11 21 11 21Z" stroke="#FF0303" stroke-linecap="round" stroke-linejoin="round"/>
</svg>
