<svg width="260" height="64" viewBox="0 0 260 64" fill="none" xmlns="http://www.w3.org/2000/svg">
<path d="M20.144 53.2039C20.144 55.4538 19.6957 57.3519 18.799 58.898C17.9024 60.4375 16.6923 61.6052 15.1687 62.4012C13.6451 63.1907 11.9462 63.5856 10.072 63.5856C8.18433 63.5856 6.47871 63.1874 4.9551 62.3914C3.43823 61.5888 2.23147 60.4178 1.33484 58.8783C0.444947 57.3322 0 55.4407 0 53.2039C0 50.954 0.444947 49.0592 1.33484 47.5197C2.23147 45.9736 3.43823 44.8059 4.9551 44.0165C6.47871 43.2204 8.18433 42.8223 10.072 42.8223C11.9462 42.8223 13.6451 43.2204 15.1687 44.0165C16.6923 44.8059 17.9024 45.9736 18.799 47.5197C19.6957 49.0592 20.144 50.954 20.144 53.2039ZM14.3597 53.2039C14.3597 51.9933 14.1945 50.9737 13.8641 50.1448C13.5406 49.3091 13.0585 48.6775 12.4181 48.2501C11.7844 47.8158 11.0023 47.5985 10.072 47.5985C9.14166 47.5985 8.35625 47.8158 7.71578 48.2501C7.08207 48.6775 6.60004 49.3091 6.26971 50.1448C5.94612 50.9737 5.78432 51.9933 5.78432 53.2039C5.78432 54.4145 5.94612 55.4374 6.26971 56.2729C6.60004 57.102 7.08207 57.7336 7.71578 58.1676C8.35625 58.5953 9.14166 58.809 10.072 58.809C11.0023 58.809 11.7844 58.5953 12.4181 58.1676C13.0585 57.7336 13.5406 57.102 13.8641 56.2729C14.1945 55.4374 14.3597 54.4145 14.3597 53.2039ZM40.6647 43.0986V63.3092H35.9725L28.4894 52.6908H28.368V63.3092H22.7454V43.0986H27.5186L34.8803 53.6776H35.0421V43.0986H40.6647ZM43.3242 63.3092V43.0986H58.2503V47.5197H48.9467V50.9934H57.4817V55.4144H48.9467V58.8881H58.2097V63.3092H43.3242ZM61.1197 63.3092V60.2698L70.9084 47.5197H61.1601V43.0986H78.068V46.1381L68.2793 58.8881H78.0276V63.3092H61.1197ZM99.9008 53.2039C99.9008 55.4538 99.4524 57.3519 98.5559 58.898C97.6591 60.4375 96.4491 61.6052 94.9254 62.4012C93.4019 63.1907 91.7031 63.5856 89.8288 63.5856C87.9411 63.5856 86.2356 63.1874 84.7118 62.3914C83.1951 61.5888 81.9882 60.4178 81.0917 58.8783C80.2017 57.3322 79.7569 55.4407 79.7569 53.2039C79.7569 50.954 80.2017 49.0592 81.0917 47.5197C81.9882 45.9736 83.1951 44.8059 84.7118 44.0165C86.2356 43.2204 87.9411 42.8223 89.8288 42.8223C91.7031 42.8223 93.4019 43.2204 94.9254 44.0165C96.4491 44.8059 97.6591 45.9736 98.5559 47.5197C99.4524 49.0592 99.9008 50.954 99.9008 53.2039ZM94.1164 53.2039C94.1164 51.9933 93.9512 50.9737 93.6209 50.1448C93.2973 49.3091 92.8153 48.6775 92.1748 48.2501C91.5413 47.8158 90.7593 47.5985 89.8288 47.5985C88.8984 47.5985 88.113 47.8158 87.4725 48.2501C86.8388 48.6775 86.3568 49.3091 86.0264 50.1448C85.7028 50.9737 85.541 51.9933 85.541 53.2039C85.541 54.4145 85.7028 55.4374 86.0264 56.2729C86.3568 57.102 86.8388 57.7336 87.4725 58.1676C88.113 58.5953 88.8984 58.809 89.8288 58.809C90.7593 58.809 91.5413 58.5953 92.1748 58.1676C92.8153 57.7336 93.2973 57.102 93.6209 56.2729C93.9512 55.4374 94.1164 54.4145 94.1164 53.2039ZM107.609 47.5197V43.0986H125.609V47.5197H119.38V63.3092H113.838V47.5197H107.609ZM146.815 53.2039C146.815 55.4538 146.367 57.3519 145.47 58.898C144.573 60.4375 143.363 61.6052 141.84 62.4012C140.316 63.1907 138.617 63.5856 136.743 63.5856C134.855 63.5856 133.15 63.1874 131.626 62.3914C130.109 61.5888 128.902 60.4178 128.006 58.8783C127.116 57.3322 126.671 55.4407 126.671 53.2039C126.671 50.954 127.116 49.0592 128.006 47.5197C128.902 45.9736 130.109 44.8059 131.626 44.0165C133.15 43.2204 134.855 42.8223 136.743 42.8223C138.617 42.8223 140.316 43.2204 141.84 44.0165C143.363 44.8059 144.573 45.9736 145.47 47.5197C146.367 49.0592 146.815 50.954 146.815 53.2039ZM141.031 53.2039C141.031 51.9933 140.865 50.9737 140.535 50.1448C140.212 49.3091 139.729 48.6775 139.089 48.2501C138.455 47.8158 137.673 47.5985 136.743 47.5985C135.813 47.5985 135.027 47.8158 134.387 48.2501C133.753 48.6775 133.271 49.3091 132.941 50.1448C132.617 50.9737 132.455 51.9933 132.455 53.2039C132.455 54.4145 132.617 55.4374 132.941 56.2729C133.271 57.102 133.753 57.7336 134.387 58.1676C135.027 58.5953 135.813 58.809 136.743 58.809C137.673 58.809 138.455 58.5953 139.089 58.1676C139.729 57.7336 140.212 57.102 140.535 56.2729C140.865 55.4374 141.031 54.4145 141.031 53.2039ZM167.336 43.0986V63.3092H162.643L155.16 52.6908H155.039V63.3092H149.416V43.0986H154.189L161.551 53.6776H161.713V43.0986H167.336ZM169.995 63.3092V43.0986H175.618V51.2698H175.901L182.13 43.0986H188.683L181.685 52.0986L188.845 63.3092H182.13L177.478 55.7302L175.618 58.0986V63.3092H169.995ZM198.32 63.3092H190.352V43.0986H198.239C200.37 43.0986 202.21 43.5034 203.761 44.3125C205.318 45.1152 206.518 46.273 207.361 47.7862C208.21 49.2927 208.635 51.0987 208.635 53.2039C208.635 55.3091 208.213 57.1184 207.371 58.6314C206.528 60.1381 205.335 61.296 203.791 62.1051C202.247 62.9077 200.424 63.3092 198.32 63.3092ZM195.974 58.6512H198.118C199.143 58.6512 200.016 58.49 200.737 58.1676C201.465 57.8453 202.018 57.2895 202.395 56.5C202.78 55.7105 202.972 54.6118 202.972 53.2039C202.972 51.796 202.777 50.6973 202.385 49.9078C202.001 49.1184 201.435 48.5626 200.687 48.2402C199.945 47.9178 199.035 47.7564 197.956 47.7564H195.974V58.6512ZM215.309 63.3092H209.241L216.078 43.0986H223.763L230.599 63.3092H224.532L220.001 48.6644H219.839L215.309 63.3092ZM214.176 55.3356H225.583V59.4406H214.176V55.3356ZM232.594 63.3092V43.0986H238.216V51.2698H238.499L244.729 43.0986H251.282L244.284 52.0986L251.443 63.3092H244.729L240.077 55.7302L238.216 58.0986V63.3092H232.594Z" fill="#572A01"/>
<mask id="mask0_316_2655" style="mask-type:luminance" maskUnits="userSpaceOnUse" x="195" y="0" width="65" height="41">
<path d="M260 0.414551H195V40.4146H260V0.414551Z" fill="white"/>
</mask>
<g mask="url(#mask0_316_2655)">
<path fill-rule="evenodd" clip-rule="evenodd" d="M242.128 19.4175C242.867 20.5377 243.308 21.8036 243.395 23.1469L249.264 29.1585C249.636 29.5382 249.708 30.0596 249.451 30.4977C249.194 30.937 248.652 31.2154 248.059 31.2154H243.424V40.0765C243.424 53.4417 231.313 64.5042 215.618 66.3562V79.3187H226.432V81.8506H214.074H207.894H195.536V79.3187H200.17V65.1092C188.305 61.656 179.612 52.7138 178.664 42.0159C178.648 41.8866 178.642 41.7552 178.637 41.6236C178.634 41.5296 178.63 41.4356 178.622 41.3424H170.82H164.64H158.461C157.608 41.3424 156.917 40.7752 156.917 40.0765C156.917 31.7002 165.232 24.886 175.454 24.886C185.143 24.886 193.106 31.0115 193.911 38.7842C193.912 38.7931 193.911 38.8019 193.912 38.8108H221.797V23.6203C221.797 22.0999 222.267 20.6693 223.093 19.4188L218.787 8.83098C218.581 8.3285 218.78 7.77397 219.286 7.44227C219.789 7.11309 220.493 7.07267 221.046 7.34475L227.576 10.5549L231.375 6.4042C231.957 5.76631 233.264 5.76631 233.847 6.4042L237.645 10.5537L244.175 7.34349C244.728 7.06888 245.433 7.11056 245.936 7.441C246.44 7.77397 246.639 8.32698 246.435 8.82972L242.128 19.4175ZM229.212 12.9868C228.737 13.5059 227.859 13.6451 227.181 13.3122L223.04 11.2767L225.386 17.0466C227.303 15.6298 229.832 14.759 232.611 14.759C235.39 14.759 237.919 15.6298 239.836 17.045L242.182 11.2754L238.039 13.3122C237.361 13.6451 236.485 13.5059 236.009 12.9868L232.611 9.2741L229.212 12.9868ZM192.447 41.3424H181.692C182.483 49.8278 191.161 56.5329 201.715 56.5329C212.269 56.5329 220.948 49.8278 221.739 41.3424H192.447ZM176.991 27.4823C176.486 27.4406 175.973 27.4178 175.454 27.4178C167.458 27.4178 160.86 32.423 160.083 38.8108H163.174C163.9 32.8408 169.707 28.0797 176.991 27.4823ZM180.085 30.0381C179.578 29.9864 179.067 29.9495 178.543 29.9495C172.253 29.9495 167.044 33.8218 166.281 38.8108H169.381C170.083 34.2397 174.507 30.6129 180.085 30.0381ZM190.773 38.8108C190.035 35.2232 186.218 32.4813 181.633 32.4813C177.048 32.4813 173.231 35.2232 172.492 38.8108H180.088H190.773ZM207.894 79.3187H212.529V66.5954C212.347 66.6025 212.166 66.6126 211.986 66.623C211.654 66.6414 211.322 66.6601 210.984 66.6601C208.318 66.6601 205.741 66.3663 203.26 65.8664V79.3187H207.894ZM210.984 64.1282C227.169 64.1282 240.335 53.3391 240.335 40.0765V23.6203C240.335 20.1302 236.87 17.2909 232.611 17.2909C228.352 17.2909 224.887 20.1302 224.887 23.6203V40.0765C224.887 50.5465 214.492 59.0648 201.715 59.0648C196.962 59.0648 192.539 57.8824 188.858 55.8621C194.243 60.9244 202.165 64.1282 210.984 64.1282ZM243.424 27.2291V28.6835H244.844L243.424 27.2291ZM234.156 23.6478H237.245V26.1797H234.156V23.6478Z" fill="#FF8B38"/>
</g>
</svg>
